<svg width="8" height="9" viewBox="0 0 8 9" fill="none" xmlns="http://www.w3.org/2000/svg">
<path d="M7.32456 5.07563C7.20735 4.95846 7.04841 4.89263 6.88268 4.89263C6.71695 4.89263 6.55801 4.95846 6.44081 5.07563L4.38268 7.13313L4.37831 0.625C4.37831 0.45924 4.31246 0.300269 4.19525 0.183058C4.07804 0.0658482 3.91907 0 3.75331 0C3.58755 0 3.42857 0.0658482 3.31136 0.183058C3.19415 0.300269 3.12831 0.45924 3.12831 0.625L3.13268 7.13375L1.07456 5.07563C1.0169 5.01593 0.947935 4.96832 0.871683 4.93556C0.79543 4.90281 0.713418 4.88556 0.630431 4.88484C0.547444 4.88412 0.465144 4.89994 0.388334 4.93136C0.311524 4.96279 0.241741 5.0092 0.183058 5.06788C0.124375 5.12656 0.077967 5.19634 0.0465415 5.27315C0.0151159 5.34996 -0.000697537 5.43226 2.35982e-05 5.51525C0.000744733 5.59824 0.0179862 5.68025 0.0507418 5.7565C0.0834974 5.83276 0.131111 5.90172 0.190805 5.95938L2.43143 8.20063C2.60554 8.37477 2.81226 8.51291 3.03976 8.60716C3.26727 8.7014 3.51111 8.74991 3.75737 8.74991C4.00362 8.74991 4.24747 8.7014 4.47497 8.60716C4.70248 8.51291 4.90919 8.37477 5.08331 8.20063L7.32456 5.95938C7.44173 5.84217 7.50755 5.68323 7.50755 5.5175C7.50755 5.35177 7.44173 5.19283 7.32456 5.07563Z" fill="white"/>
</svg>
