<svg width="15" height="19" viewBox="0 0 15 19" fill="none" xmlns="http://www.w3.org/2000/svg">
<path d="M11.25 0.5H3.75C2.7558 0.501191 1.80267 0.896661 1.09966 1.59966C0.396661 2.30267 0.00119089 3.2558 0 4.25V15.5C0 16.2956 0.316071 17.0587 0.87868 17.6213C1.44129 18.1839 2.20435 18.5 3 18.5H11.25C12.2442 18.4988 13.1973 18.1033 13.9003 17.4003C14.6033 16.6973 14.9988 15.7442 15 14.75V4.25C14.9988 3.2558 14.6033 2.30267 13.9003 1.59966C13.1973 0.896661 12.2442 0.501191 11.25 0.5V0.5ZM13.5 4.25V12.5H4.5V2H11.25C11.8467 2 12.419 2.23705 12.841 2.65901C13.2629 3.08097 13.5 3.65326 13.5 4.25ZM3 2.129V12.5C2.47322 12.4995 1.9557 12.6385 1.5 12.9027V4.25C1.50007 3.78477 1.64435 3.33099 1.91298 2.95115C2.1816 2.57131 2.56137 2.28408 3 2.129ZM11.25 17H3C2.60218 17 2.22064 16.842 1.93934 16.5607C1.65804 16.2794 1.5 15.8978 1.5 15.5C1.5 15.1022 1.65804 14.7206 1.93934 14.4393C2.22064 14.158 2.60218 14 3 14H13.5V14.75C13.5 15.3467 13.2629 15.919 12.841 16.341C12.419 16.7629 11.8467 17 11.25 17Z" fill="white"/>
</svg>
