<svg width="15" height="15" viewBox="0 0 15 15" fill="none" xmlns="http://www.w3.org/2000/svg">
<path d="M14.375 10C14.2092 10 14.0503 10.0658 13.9331 10.1831C13.8158 10.3003 13.75 10.4592 13.75 10.625V13.125C13.75 13.2908 13.6842 13.4497 13.5669 13.5669C13.4497 13.6842 13.2908 13.75 13.125 13.75H1.875C1.70924 13.75 1.55027 13.6842 1.43306 13.5669C1.31585 13.4497 1.25 13.2908 1.25 13.125V10.625C1.25 10.4592 1.18415 10.3003 1.06694 10.1831C0.949732 10.0658 0.79076 10 0.625 10C0.45924 10 0.300269 10.0658 0.183058 10.1831C0.065848 10.3003 0 10.4592 0 10.625L0 13.125C0 13.6223 0.197544 14.0992 0.549175 14.4508C0.900805 14.8025 1.37772 15 1.875 15H13.125C13.6223 15 14.0992 14.8025 14.4508 14.4508C14.8025 14.0992 15 13.6223 15 13.125V10.625C15 10.4592 14.9342 10.3003 14.8169 10.1831C14.6997 10.0658 14.5408 10 14.375 10Z" fill="white"/>
<path d="M3.30799 8.46125L6.17424 11.3281C6.52642 11.6786 7.00304 11.8753 7.49987 11.8753C7.9967 11.8753 8.47331 11.6786 8.82549 11.3281L11.6917 8.46187C11.7514 8.40422 11.7991 8.33525 11.8318 8.259C11.8646 8.18275 11.8818 8.10074 11.8825 8.01775C11.8832 7.93476 11.8674 7.85246 11.836 7.77565C11.8046 7.69884 11.7582 7.62906 11.6995 7.57038C11.6408 7.5117 11.571 7.46529 11.4942 7.43386C11.4174 7.40244 11.3351 7.38662 11.2521 7.38734C11.1691 7.38806 11.0871 7.40531 11.0109 7.43806C10.9346 7.47082 10.8656 7.51843 10.808 7.57812L8.12487 10.26V0.625C8.12487 0.45924 8.05902 0.300269 7.94181 0.183058C7.8246 0.065848 7.66563 0 7.49987 0C7.33411 0 7.17514 0.065848 7.05793 0.183058C6.94072 0.300269 6.87487 0.45924 6.87487 0.625V10.2606L4.19174 7.5775C4.13409 7.51781 4.06512 7.47019 3.98887 7.43744C3.91262 7.40468 3.83061 7.38744 3.74762 7.38672C3.66463 7.386 3.58233 7.40181 3.50552 7.43324C3.42871 7.46466 3.35893 7.51107 3.30025 7.56975C3.24156 7.62844 3.19515 7.69822 3.16373 7.77503C3.1323 7.85184 3.11649 7.93414 3.11721 8.01713C3.11793 8.10011 3.13517 8.18213 3.16793 8.25838C3.20068 8.33463 3.2483 8.4036 3.30799 8.46125Z" fill="white"/>
</svg>
