<svg width="145" height="145" viewBox="0 0 145 145" fill="none" xmlns="http://www.w3.org/2000/svg">
<circle cx="72.5" cy="72.5" r="72.5" fill="#2489FF" fill-opacity="0.3"/>
<circle cx="72.5" cy="72.5" r="37.3711" fill="#2489FF" fill-opacity="0.3"/>
<circle cx="72.5" cy="72.5" r="53.8144" fill="#2489FF" fill-opacity="0.3"/>
<path d="M78.8486 69.4848L71.7182 64.2529C71.1613 63.8451 70.5023 63.5995 69.8143 63.5433C69.1264 63.4872 68.4363 63.6227 67.8206 63.9348C67.2049 64.2468 66.6877 64.7234 66.3263 65.3115C65.9649 65.8995 65.7735 66.5762 65.7732 67.2665V77.7304C65.7733 78.421 65.9648 79.098 66.3263 79.6864C66.6879 80.2747 67.2054 80.7514 67.8214 81.0635C68.4375 81.3756 69.1279 81.5108 69.8162 81.4543C70.5044 81.3978 71.1636 81.1517 71.7204 80.7433L78.8508 75.5113C79.3242 75.1642 79.7091 74.7105 79.9744 74.1869C80.2397 73.6634 80.3779 73.0847 80.3779 72.4977C80.3779 71.9108 80.2397 71.3321 79.9744 70.8085C79.7091 70.2849 79.3242 69.8312 78.8508 69.4841L78.8486 69.4848ZM77.9637 74.3057L70.8332 79.5377C70.4992 79.7818 70.104 79.9287 69.6916 79.9622C69.2792 79.9957 68.8655 79.9143 68.4965 79.7272C68.1274 79.5402 67.8173 79.2546 67.6005 78.9022C67.3837 78.5497 67.2686 78.1442 67.268 77.7304V67.2665C67.2639 66.8519 67.3768 66.4446 67.5937 66.0913C67.8107 65.7381 68.1229 65.4532 68.4946 65.2694C68.8106 65.1086 69.1602 65.0246 69.5148 65.0242C69.9901 65.026 70.4522 65.1804 70.8332 65.4645L77.9637 70.6964C78.2473 70.9047 78.4779 71.1769 78.6369 71.4908C78.7959 71.8048 78.8787 72.1518 78.8787 72.5037C78.8787 72.8556 78.7959 73.2026 78.6369 73.5165C78.4779 73.8305 78.2473 74.1027 77.9637 74.311V74.3057Z" fill="white"/>
<path d="M69.884 64.6521L66.8943 66.5206V78.8531L69.884 80.348L78.8531 73.9949V71.0052L69.884 64.6521Z" fill="white"/>
<path d="M78.8486 69.4848L71.7182 64.2529C71.1613 63.8451 70.5023 63.5995 69.8143 63.5433C69.1264 63.4872 68.4363 63.6227 67.8206 63.9348C67.2049 64.2468 66.6877 64.7234 66.3263 65.3115C65.9649 65.8995 65.7735 66.5762 65.7732 67.2665V77.7304C65.7733 78.421 65.9648 79.098 66.3263 79.6864C66.6879 80.2747 67.2054 80.7514 67.8214 81.0635C68.4375 81.3756 69.1279 81.5108 69.8162 81.4543C70.5044 81.3978 71.1636 81.1517 71.7204 80.7433L78.8508 75.5113C79.3242 75.1642 79.7091 74.7105 79.9744 74.1869C80.2397 73.6634 80.3779 73.0847 80.3779 72.4977C80.3779 71.9108 80.2397 71.3321 79.9744 70.8085C79.7091 70.2849 79.3242 69.8312 78.8508 69.4841L78.8486 69.4848ZM77.9637 74.3057L70.8332 79.5377C70.4992 79.7818 70.104 79.9287 69.6916 79.9622C69.2792 79.9957 68.8655 79.9143 68.4965 79.7272C68.1274 79.5402 67.8173 79.2546 67.6005 78.9022C67.3837 78.5497 67.2686 78.1442 67.268 77.7304V67.2665C67.2639 66.8519 67.3768 66.4446 67.5937 66.0913C67.8107 65.7381 68.1229 65.4532 68.4946 65.2694C68.8106 65.1086 69.1602 65.0246 69.5148 65.0242C69.9901 65.026 70.4522 65.1804 70.8332 65.4645L77.9637 70.6964C78.2473 70.9047 78.4779 71.1769 78.6369 71.4908C78.7959 71.8048 78.8787 72.1518 78.8787 72.5037C78.8787 72.8556 78.7959 73.2026 78.6369 73.5165C78.4779 73.8305 78.2473 74.1027 77.9637 74.311V74.3057Z" stroke="white"/>
<path d="M69.884 64.6521L66.8943 66.5206V78.8531L69.884 80.348L78.8531 73.9949V71.0052L69.884 64.6521Z" stroke="white"/>
</svg>
