<svg width="15" height="17" viewBox="0 0 15 17" fill="none" xmlns="http://www.w3.org/2000/svg">
<path d="M14.8468 9.48154C15.335 5.37221 14.6122 2.77788 13.3086 1.60447L13.3093 1.60378C11.2052 -0.400087 4.09924 -0.696679 1.58196 1.69378C0.451499 2.86311 0.053316 4.57925 0.00967952 6.7038C-0.033957 8.82904 -0.0857754 12.8102 3.62401 13.8902H3.62742L3.62401 15.5395C3.62401 15.5395 3.59878 16.2077 4.0256 16.342C4.51379 16.5002 4.7347 16.19 6.25311 14.3763C8.79221 14.5966 10.7422 14.092 10.9638 14.0184C11.4765 13.8466 14.3777 13.4627 14.8468 9.48154ZM6.50334 13.2159C6.50334 13.2159 4.89629 15.2197 4.39651 15.74C4.23288 15.9091 4.05356 15.8934 4.05628 15.5579C4.05628 15.3377 4.06856 12.8197 4.06856 12.8197C0.923319 11.9184 1.10877 8.52835 1.14287 6.75494C1.17696 4.98084 1.5015 3.52788 2.45878 2.54947C4.6672 0.47878 10.897 0.941736 12.4843 2.43356C14.4247 4.15379 13.734 9.01381 13.7381 9.17949C13.3393 12.5027 10.9884 12.7134 10.5561 12.8572C10.3713 12.9186 8.65653 13.3597 6.50334 13.2159Z" fill="white"/>
<path d="M7.39243 2.93881C7.12993 2.93881 7.12993 3.3479 7.39243 3.35131C9.42903 3.367 11.1063 4.78655 11.1247 7.39042C11.1247 7.66519 11.527 7.66179 11.5236 7.38701H11.5229C11.5011 4.58132 9.66971 2.95449 7.39243 2.93881Z" fill="white"/>
<path d="M10.0714 6.95881C10.0652 7.23017 10.4668 7.24313 10.4703 6.96836C10.5037 5.42131 9.54979 4.14699 7.75728 4.01267C7.49478 3.99358 7.46751 4.40608 7.72933 4.42517C9.28388 4.54312 10.1027 5.60403 10.0714 6.95881Z" fill="white"/>
<path d="M9.64168 8.71858C9.30486 8.52358 8.96191 8.64494 8.82009 8.83654L8.5235 9.2204C8.37281 9.4154 8.09122 9.38949 8.09122 9.38949C6.03622 8.84608 5.48667 6.69562 5.48667 6.69562C5.48667 6.69562 5.46144 6.40448 5.64962 6.24834L6.02053 5.94152C6.20599 5.79425 6.32326 5.4397 6.1344 5.09129C5.62985 4.1797 5.29099 3.86538 5.11849 3.62402C4.93712 3.39697 4.66439 3.34583 4.38076 3.49924H4.37462C3.78484 3.84424 3.13916 4.48993 3.34575 5.1547C3.69825 5.85562 4.34598 8.08994 6.41053 9.77813C7.38076 10.5765 8.91622 11.3947 9.56805 11.5836L9.57418 11.5931C10.2165 11.8072 10.841 11.1363 11.1744 10.5288V10.524C11.3224 10.2302 11.2733 9.95199 11.0571 9.76995C10.674 9.39631 10.0958 8.98381 9.64168 8.71858Z" fill="white"/>
<path d="M8.03796 5.53449C8.69319 5.57267 9.01091 5.91495 9.045 6.6179C9.05728 6.89268 9.45614 6.87359 9.44387 6.59881C9.40023 5.68108 8.9216 5.16971 8.05977 5.12199C7.79727 5.10631 7.77273 5.51881 8.03796 5.53449Z" fill="white"/>
</svg>
