<svg width="15" height="16" viewBox="0 0 15 16" fill="none" xmlns="http://www.w3.org/2000/svg">
<path d="M10.942 9.63156L10.9363 9.67843C9.56197 8.99343 9.41822 8.90218 9.24072 9.16843C9.11759 9.35281 8.75884 9.77093 8.65071 9.89468C8.54134 10.0166 8.43259 10.0259 8.24696 9.94156C8.05946 9.84781 7.45759 9.65093 6.74509 9.01343C6.19009 8.51656 5.81759 7.90718 5.70759 7.71968C5.52446 7.40343 5.90759 7.35843 6.25634 6.69843C6.31884 6.56718 6.28696 6.46406 6.24071 6.37093C6.19384 6.27718 5.82071 5.35843 5.66446 4.99218C5.51446 4.62718 5.36009 4.67343 5.24446 4.67343C4.88446 4.64218 4.62134 4.64718 4.38946 4.88843C3.38071 5.99718 3.63509 7.14093 4.49821 8.35718C6.19446 10.5772 7.09821 10.9859 8.75072 11.5534C9.19697 11.6953 9.60384 11.6753 9.92572 11.6291C10.2845 11.5722 11.0301 11.1784 11.1857 10.7378C11.3451 10.2972 11.3451 9.93156 11.2982 9.84718C11.252 9.76281 11.1295 9.71593 10.942 9.63156Z" fill="white"/>
<path d="M12.825 2.84483C8.01937 -1.80079 0.06625 1.56858 0.063125 8.12232C0.063125 9.43232 0.40625 10.7098 1.06 11.8379L0 15.6892L3.95937 14.6567C8.9 17.3254 14.9975 13.7817 15 8.12607C15 6.14108 14.225 4.27295 12.8156 2.8692L12.825 2.84483ZM13.7513 8.10545C13.7475 12.8761 8.51062 15.8554 4.36875 13.4204L4.14375 13.2867L1.8 13.8961L2.42812 11.6179L2.27875 11.3836C-0.29875 7.28045 2.6625 1.91795 7.545 1.91795C9.20375 1.91795 10.7606 2.56483 11.9331 3.7367C13.105 4.89858 13.7513 6.45545 13.7513 8.10545Z" fill="white"/>
</svg>
