<svg width="15" height="14" viewBox="0 0 15 14" fill="none" xmlns="http://www.w3.org/2000/svg">
<path d="M14.7684 1.19113C14.5851 0.967056 14.3107 0.843689 13.9955 0.843689C13.8242 0.843689 13.6427 0.879738 13.4562 0.951034L0.758994 5.79793C0.0851674 6.05508 -0.00558404 6.44098 0.000252424 6.64811C0.00608889 6.85525 0.118584 7.23542 0.805915 7.45412C0.810034 7.45538 0.814154 7.45663 0.818274 7.45778L3.45201 8.21148L4.87634 12.2844C5.07055 12.8397 5.50645 13.1846 6.01411 13.1846C6.3342 13.1846 6.64903 13.0505 6.9246 12.7969L8.55366 11.2969L10.9165 13.1995C10.9167 13.1997 10.9171 13.1998 10.9173 13.2001L10.9397 13.2181C10.9418 13.2197 10.944 13.2215 10.946 13.2231C11.2087 13.4268 11.4954 13.5343 11.7754 13.5345H11.7755C12.3226 13.5345 12.7583 13.1295 12.8852 12.5028L14.9657 2.23014C15.0492 1.81781 14.9792 1.44885 14.7684 1.19113ZM4.33309 8.06832L9.41437 5.47247L6.25043 8.83438C6.19859 8.88943 6.16185 8.95684 6.14377 9.03019L5.53369 11.5014L4.33309 8.06832ZM6.32916 12.1503C6.30811 12.1696 6.28694 12.1869 6.26576 12.2028L6.83179 9.91035L7.86141 10.7395L6.32916 12.1503ZM14.1043 2.05561L12.0238 12.3284C12.0038 12.4267 11.9398 12.6554 11.7754 12.6554C11.6941 12.6554 11.5921 12.6112 11.4876 12.5307L8.81012 10.3749C8.80978 10.3745 8.80932 10.3742 8.80886 10.374L7.21574 9.09107L11.7912 4.2293C11.9377 4.07366 11.9509 3.83528 11.8227 3.6643C11.6943 3.49333 11.4616 3.43954 11.2713 3.53682L3.74589 7.38133L1.07634 6.61756L13.7696 1.77215C13.8769 1.73118 13.9517 1.72259 13.9955 1.72259C14.0224 1.72259 14.0703 1.7258 14.088 1.74765C14.1114 1.77615 14.1411 1.87331 14.1043 2.05561Z" fill="white"/>
</svg>
